Coordinates
version=1
nRows=16
nColumns=40
inDegrees=yes

Units are S.I. units (second, meters, Newtons, ...)
Angles are in degrees.

endheader
time	pelvis_tilt	pelvis_list	pelvis_rotation	pelvis_tx	pelvis_ty	pelvis_tz	hip_flexion_r	hip_adduction_r	hip_rotation_r	knee_angle_r	knee_angle_r_beta	ankle_angle_r	subtalar_angle_r	mtp_angle_r	hip_flexion_l	hip_adduction_l	hip_rotation_l	knee_angle_l	knee_angle_l_beta	ankle_angle_l	subtalar_angle_l	mtp_angle_l	lumbar_extension	lumbar_bending	lumbar_rotation	arm_flex_r	arm_add_r	arm_rot_r	elbow_flex_r	pro_sup_r	wrist_flex_r	wrist_dev_r	arm_flex_l	arm_add_l	arm_rot_l	elbow_flex_l	pro_sup_l	wrist_flex_l	wrist_dev_l
     25.68750000	     -4.59662773	     -4.86505239	    -11.22769202	      0.98253126	      0.92599132	      0.52819010	     19.09065560	      2.87268048	     -8.24537340	     20.10200886	     20.10200886	      6.44818263	     -0.38076317	     -3.27619267	     -2.59831301	     -7.89819215	    -15.46047100	     20.03481341	     20.03481341	     19.06264347	     -9.02030240	     -0.40025589	     -8.88597222	      8.52306868	     -0.60510446	     -9.86952360	    -14.48621142	    -15.16456327	     43.10253158	     45.75013800	      0.00000000	      0.00000000	     26.43584130	    -20.15046816	    -16.86289353	     93.44773558	     47.96028859	      0.00000000	      0.00000000
     25.70628571	     -4.75146225	     -5.01906597	    -10.94400073	      0.98329413	      0.92678289	      0.53226229	     18.40331334	      3.24616362	     -8.59426399	     19.50290021	     19.50290021	      6.68527941	     -0.16632030	     -3.21377805	     -2.03495724	     -8.60438588	    -15.05366451	     21.59347942	     21.59347942	     18.65320465	     -9.53272784	     -0.58459782	     -8.78671972	      8.55104413	     -0.60329957	     -8.93248198	    -14.72079895	    -15.04358451	     43.94949048	     45.71834560	      0.00000000	      0.00000000	     25.92413298	    -19.70389242	    -16.43985621	     92.82906722	     47.92708949	      0.00000000	      0.00000000
     25.72507143	     -4.87814946	     -5.16572958	    -10.65225811	      0.98397335	      0.92749112	      0.53626787	     17.72236469	      3.60652315	     -8.93818516	     18.95732147	     18.95732147	      6.93682999	      0.00216656	     -3.19204450	     -1.36421425	     -9.33829970	    -14.65676565	     23.36979740	     23.36979740	     18.18188021	    -10.01185328	     -0.97051276	     -8.67305329	      8.56074945	     -0.65802592	     -7.99759313	    -14.99928992	    -14.86857772	     45.11988505	     45.67204746	      0.00000000	      0.00000000	     25.22052164	    -19.32490689	    -16.00759626	     91.91703541	     47.88683221	      0.00000000	      0.00000000
     25.74385714	     -4.95002836	     -5.32440399	    -10.38041267	      0.98451966	      0.92809335	      0.54024577	     17.03417837	      3.98668938	     -9.21205280	     18.47469007	     18.47469007	      7.11410490	      0.05515787	     -3.28254095	     -0.66669545	    -10.09812532	    -14.27573773	     25.22297288	     25.22297288	     17.09271201	    -10.73168636	     -2.73418811	     -8.61139563	      8.57581589	     -0.25042740	     -8.19527061	    -15.71113408	    -13.52908559	     48.89907350	     45.47492792	      0.00000000	      0.00000000	     24.75736735	    -18.67474602	    -15.05905038	     90.02582872	     47.83677047	      0.00000000	      0.00000000
     25.76264286	     -4.94340961	     -5.50362309	    -10.01955862	      0.98508211	      0.92865327	      0.54409548	     16.26709754	      4.36264598	     -9.51701588	     18.01749231	     18.01749231	      7.40988760	      0.10761219	     -3.28689634	      0.21747381	    -10.89521451	    -13.63729815	     27.53854676	     27.53854676	     16.36306317	    -11.49451796	     -3.30508584	     -8.60101514	      8.50586206	     -0.36509395	     -7.02535517	    -16.03306638	    -13.53321571	     49.77281829	     45.45206765	      0.00000000	      0.00000000	     23.68340143	    -18.23284328	    -14.62995320	     88.96152937	     47.79046661	      0.00000000	      0.00000000
     25.78142857	     -4.97177646	     -5.64156912	     -9.65110870	      0.98548671	      0.92897116	      0.54783648	     15.64660171	      4.71341200	     -9.67319779	     17.70938808	     17.70938808	      7.71787758	     -0.09203980	     -3.31643817	      1.30431735	    -11.65214207	    -12.87612183	     30.00961023	     30.00961023	     15.03016895	    -12.59950445	     -4.89979553	     -8.45527551	      8.42663375	     -0.59210269	     -5.96940367	    -16.39815954	    -13.19734111	     51.63672816	     45.38094419	      0.00000000	      0.00000000	     22.46652089	    -17.90200520	    -14.12655987	     86.85168791	     47.72962535	      0.00000000	      0.00000000
     25.80021429	     -4.85228927	     -5.88541179	     -9.21247050	      0.98579423	      0.92924760	      0.55139846	     14.90696882	      5.12355567	     -9.94044730	     17.48340581	     17.48340581	      8.06844499	     -0.25345799	     -3.34004689	      2.55015552	    -12.55236833	    -11.97473210	     33.01358031	     33.01358031	     13.70041961	    -13.63971830	     -5.99049927	     -8.53483064	      8.41801132	     -0.64609669	     -4.74015543	    -16.76791606	    -13.09657140	     52.87684471	     45.34151803	      0.00000000	      0.00000000	     21.19659331	    -17.31717274	    -13.62203539	     85.29921608	     47.66846223	      0.00000000	      0.00000000
     25.81900000	     -4.69511164	     -6.08263021	     -8.75866514	      0.98599028	      0.92927652	      0.55492526	     14.29055244	      5.50518204	     -9.96407112	     17.51740225	     17.51740225	      8.50163477	     -0.84699566	     -3.26968318	      3.74483744	    -13.40417107	    -11.11514319	     35.69749908	     35.69749908	     10.01650654	    -15.96048544	    -11.86497663	     -8.61354161	      8.33838069	     -0.22234982	     -4.67187246	    -17.55536762	    -12.25816388	     56.57719164	     45.20603297	      0.00000000	      0.00000000	     20.60308167	    -16.58693007	    -12.28487037	     81.61063841	     47.57592392	      0.00000000	      0.00000000
     25.83778571	     -4.52576962	     -6.30889639	     -8.21170347	      0.98603814	      0.92911546	      0.55818267	     13.71456924	      5.87143067	    -10.17098086	     17.62200313	     17.62200313	      8.95698597	     -1.32793996	     -3.31285778	      5.50148171	    -14.32479539	     -9.98263213	     39.44377154	     39.44377154	      8.25987545	    -16.91626420	    -12.52284375	     -8.67031360	      8.25217374	     -0.57255625	     -3.01822421	    -17.73842894	    -12.40883961	     57.75677368	     45.18330932	      0.00000000	      0.00000000	     18.94535916	    -16.16303447	    -11.81945340	     79.53616117	     47.50682177	      0.00000000	      0.00000000
     25.85657143	     -4.34743509	     -6.50396505	     -7.63648633	      0.98584722	      0.92863828	      0.56129287	     13.29968526	      6.21024738	    -10.20589802	     17.98529520	     17.98529520	      9.49977837	     -2.13660337	     -3.31033729	      7.50745928	    -15.19168928	     -8.71073549	     43.44434901	     43.44434901	      6.08927990	    -17.80757585	    -13.26371244	     -8.71540940	      8.11105436	     -1.03967015	     -1.32974109	    -17.88953113	    -12.37869968	     59.39708079	     45.13853898	      0.00000000	      0.00000000	     17.34672273	    -15.78287118	    -11.30038507	     76.52647729	     47.42045588	      0.00000000	      0.00000000
     25.87535714	     -3.83305785	     -6.80230214	     -7.04276631	      0.98575692	      0.92836604	      0.56418632	     12.56237466	      6.58079354	    -10.34622646	     18.45898810	     18.45898810	     10.12640155	     -2.72371750	     -3.42555493	      9.26679898	    -16.09057673	     -7.45478599	     47.54123713	     47.54123713	      3.83611677	    -18.40169060	    -13.36887716	     -9.22336928	      8.03555368	     -1.06186266	      0.52212052	    -18.20739315	    -12.43082404	     60.68747619	     45.10749940	      0.00000000	      0.00000000	     15.80364706	    -14.96876352	    -10.72002285	     74.37980840	     47.33912086	      0.00000000	      0.00000000
     25.89414286	     -3.70209404	     -6.89005245	     -6.40785685	      0.98518308	      0.92727668	      0.56676696	     12.52280713	      6.80542316	    -10.15125289	     19.33773226	     19.33773226	     11.07763339	     -4.04234721	     -2.47373887	     11.85738478	    -16.61525804	     -5.80812475	     52.02063531	     52.02063531	      2.19096260	    -18.67561829	    -10.79947273	     -9.10824015	      7.91660587	     -0.40368095	      0.59744021	    -18.68912764	    -12.84200360	     64.92406714	     45.03765041	      0.00000000	      0.00000000	     16.11323288	    -14.24148740	     -8.59017207	     67.12937073	     47.15754927	      0.00000000	      0.00000000
     25.91292857	     -3.34118173	     -7.00991043	     -5.75626515	      0.98469027	      0.92624122	      0.56907574	     12.24345721	      6.99550579	    -10.12446236	     20.22307255	     20.22307255	     11.76491927	     -5.19789370	     -2.49246407	     14.17227277	    -17.05534735	     -4.26571336	     56.23799535	     56.23799535	      0.32760046	    -18.96604278	     -8.46837670	     -9.27314078	      7.73327051	     -0.94782003	      2.81866946	    -18.64082046	    -12.79509457	     66.74333783	     44.99616711	      0.00000000	      0.00000000	     14.45534924	    -13.84140913	     -8.02452313	     63.47341872	     47.06564740	      0.00000000	      0.00000000
     25.93171429	     -3.02285496	     -7.11339320	     -5.09592562	      0.98395443	      0.92503845	      0.57096868	     12.07395924	      7.12326207	    -10.22465013	     21.19926083	     21.19926083	     12.64854703	     -6.02271088	     -2.07738617	     16.77254034	    -17.12444589	     -2.39555197	     60.57356436	     60.57356436	      0.16629953	    -18.96614184	     -1.06989073	     -9.46862804	      7.56008551	     -0.61615091	      4.23542678	    -19.12902633	    -12.73000413	     69.04097903	     44.95949667	      0.00000000	      0.00000000	     13.94380337	    -12.84650198	     -6.99810581	     58.05279800	     46.94635623	      0.00000000	      0.00000000
     25.95050000	     -2.66130089	     -7.17866868	     -4.43843731	      0.98320105	      0.92374296	      0.57262370	     11.88814485	      7.20447753	    -10.29185746	     22.22235761	     22.22235761	     13.52673131	     -6.91577161	     -1.71279613	     19.15147456	    -17.14579938	     -0.87053923	     64.30976993	     64.30976993	     -0.04496332	    -19.07464758	      5.18024619	     -9.69043242	      7.37158265	     -0.56749379	      6.12402658	    -19.22914995	    -13.04531935	     71.32367756	     44.94196015	      0.00000000	      0.00000000	     12.85856308	    -12.14832483	     -5.95387113	     53.46839517	     46.82897582	      0.00000000	      0.00000000
     25.96928571	     -2.15953428	     -7.42875453	     -3.82334249	      0.98256790	      0.92257648	      0.57425374	     11.41617260	      7.48553310	    -10.46895037	     23.00781007	     23.00781007	     14.12874043	     -7.58483340	     -1.88450303	     20.97569058	    -17.64599168	      0.04149382	     67.11316261	     67.11316261	     -1.45634060	    -19.27773635	      6.22708777	    -10.13468135	      7.32928865	     -0.51494107	      8.52065268	    -19.46805005	    -13.35129420	     72.78651254	     44.91779597	      0.00000000	      0.00000000	     10.80234414	    -11.40439085	     -5.48606988	     51.60442859	     46.75076537	      0.00000000	      0.00000000
